Patient4_TMGait_0pt6_01_right_48_EMG.mot
version=1
nRows=36
nColumns=33
inDegrees=no
endheader
time	1LAddLong	2LGlutMax	3LGlutMed	4LIliopsoas	5LSemiMemb	6LBicFemLong	7LRecFem	8LVastMed	9LVastLat	10LGasMed	11LTibAnt	12lTibPost	13LPeroneusLong	14LSol	15LExtDigLong	16LFlexDigLong	17RAddLong	18RGlutMax	19RGlutMed	20RIliopsoas	21RSemiMemb	22RBicFemLong	23RRecFem	24RVastMed	25RVastLat	26RGasMed	27RTibAnt	28RTibPost	29RPeroneusLong	30RSol	31RExtDigLong	32RFlexDigLong
59.15	0.010834	-0.071259	-0.007324	0.011597	0.018158	-0.16159	0.093536	-0.00473	-0.032654	-0.3833	0.016022	-0.04303	0.015411	-0.15732	0.060883	-0.10819	0.005646	-0.079803	0.1387	0.1059	-0.002899	0.14252	0.028534	-0.097046	-0.026398	-0.00473	0.10284	-0.006104	0.59769	-0.036926	0.000763	-0.002289
59.151	0.011292	-0.067291	-0.025482	0.01236	0.099335	-0.29022	0.10147	-0.013123	-0.10498	-0.1828	0.098267	-0.001984	0.041504	0.18173	0.080261	-0.07309	0.03006	-0.11398	0.11353	0.000305	-0.004272	0.097809	0.007629	-0.087585	-0.015717	-0.007324	0.11047	-0.004425	0.37018	-0.024109	0.002899	-0.00946
59.152	0.014801	-0.054474	0.007324	0.011902	0.11337	-0.21744	0.069427	-0.018921	-0.012665	-0.046234	0.22522	0.010986	0.012512	0.35095	0.37186	-0.021667	0.041351	-0.14191	0.089722	-0.085602	-0.005341	0.045319	0.022888	-0.035095	-0.014954	-0.001831	0.072784	-0.000153	-0.25726	-0.054016	0.001678	-0.003357
59.153	0.014496	-0.075531	-0.012207	0.007629	0.089722	-0.084991	0.077057	-0.011444	-0.008545	0.000458	0.20355	0.016174	-0.001068	0.32379	0.24551	-0.041962	0.042419	-0.14679	0.007935	-0.092316	0.009308	0.014038	-0.011292	-0.067444	-0.019379	-0.005951	-0.003815	-0.010986	0.015564	-0.035706	-0.001373	-0.009613
59.154	0.009003	-0.059052	-0.013428	0.027924	0.050201	-0.035858	0.079498	0.007629	-0.032349	0.005188	0.13184	0.007019	0.002289	0.11185	-0.004272	-0.029907	0.034485	-0.15457	0.10971	-0.007324	0.030975	0.00824	-0.006409	-0.079193	-0.004578	-0.003967	-0.11124	0.001068	0.11719	-0.033722	-0.00061	-0.011902
59.155	-0.002289	-0.044403	-0.015106	-0.003967	0.019073	-0.035553	0.074463	-0.001221	-0.017242	0.013428	-0.1355	0.01236	0.001373	-0.015259	-0.24246	-0.015411	0.004578	-0.14084	0.10132	0.019226	0.016327	-0.02182	-0.050812	-0.063019	0.014801	-0.000458	-0.31921	-0.004883	0.3949	-0.075989	-0.001373	-0.015259
59.156	-0.00473	-0.04715	-0.016327	-0.00824	-0.027466	-0.063629	0.056458	-0.001984	0.000153	0.00885	-0.1091	0.016327	-0.036316	0.059357	0.011902	-0.020447	-0.018768	-0.095367	0.21454	0.003204	0.014648	-0.050201	-0.059509	-0.07019	0.014648	0.005951	-0.24933	0.000305	0.52033	-0.10956	-0.00061	0.000305
59.157	0.02121	-0.048523	-0.026398	0.003662	-0.02182	-0.027313	0.040894	-0.001831	0.0383	0.010071	-0.062714	0.010071	-0.12909	0.039215	-0.16159	-0.027618	-0.019226	-0.1297	0.19302	0.036926	0.013275	-0.10773	-0.050659	-0.096893	0.005493	-0.002136	0.083008	-0.001373	0.4512	-0.094757	-0.000305	-0.004272
59.158	0.024872	-0.061798	-0.028687	0.012054	0.028229	-0.00473	0.05722	0.001373	0.032043	0.000916	-0.053253	0.008087	-0.23163	0.020142	-0.14313	-0.05188	-0.010071	-0.15839	-0.0354	0.005646	0.03006	-0.11673	-0.028687	-0.047455	0.003204	0.004272	0.1796	-0.00061	-0.41245	-0.13916	-0.001221	-0.000916
59.159	0.012817	-0.075836	-0.03891	0.003662	0.05249	-0.15961	0.057678	-0.001068	0.028076	0.036316	-0.006866	-0.014038	-0.18402	0.017242	-0.10544	-0.045013	-0.002747	-0.16815	-0.1973	-0.066681	0.049744	-0.15381	0.019531	-0.084991	0.000305	0.010681	0.088654	-0.008392	-0.54443	-0.1384	-0.001373	0.002136
59.16	0.009613	-0.065308	-0.039063	-0.004272	0.064392	-0.10574	0.060577	0.001831	0.018768	0.024719	-0.092316	-0.040131	0.012512	-0.0383	-0.091705	-0.033875	-0.001678	-0.15595	-0.083618	-0.026398	0.054779	-0.16174	-0.034332	-0.077972	-0.010834	0.007782	0.06012	-0.001373	-0.22201	-0.02533	0.00061	-0.004425
59.161	0.00946	-0.059357	-0.070038	-0.000305	0.056305	-0.037842	0.043335	-0.00061	0.007782	0.001221	-0.15945	0.12192	0.067444	-0.11368	-0.032043	-0.000458	-0.003052	-0.13092	-0.027924	-0.031433	0.012512	-0.16068	-0.024872	-0.098267	-0.01297	0.001831	0.058136	-0.002289	-0.16983	0.095978	-0.005493	-0.003052
59.162	0.009308	-0.05722	-0.070343	0.005188	0.028076	0.22598	0.040894	0.003815	0.014648	0.005341	-0.14023	0.045776	0.13046	-0.093384	-0.023804	-0.001221	-0.020905	-0.14648	-0.019073	-0.009766	-0.052185	-0.11917	-0.019226	-0.0737	0.004883	-0.007782	0.039215	-0.005646	-0.3804	0.12375	-0.003662	-0.007782
59.163	0.006409	-0.070496	-0.016632	0.010986	0.012207	0.39261	-0.007477	0.001221	0.031738	0.13107	-0.10529	-0.020447	0.12146	-0.17777	0.014191	0.034485	-0.013733	-0.16632	-0.022736	0.04303	-0.067596	-0.10284	-0.009766	-0.047607	-0.008545	-0.002747	0.071716	-0.006409	-0.50491	0.0177	0.000763	-0.008698
59.164	0.002899	-0.098114	-0.057373	0.012512	-0.00473	0.38193	-0.01297	-0.003662	0.02655	0.28885	-0.055847	-0.069427	0.11078	0.52551	-0.00061	-0.014801	0.000763	-0.1648	-0.041656	0.061646	-0.050049	-0.1152	-0.029144	-0.044708	-0.002899	-0.005646	0.097198	-0.001831	-0.27527	-0.049896	0	-0.012817
59.165	0.007477	-0.084991	-0.052032	0.006409	0.006866	0.3923	0.017242	0.000153	0.045166	0.27679	-0.02533	0.010529	0.1149	0.84946	-0.000305	-0.006714	0.037384	-0.11643	-0.11017	0.061493	-0.003967	-0.13977	-0.019836	-0.068512	-0.00473	0.001221	0.041199	-0.001984	0.44113	-0.02182	-0.002289	-0.010986
59.166	0.012207	-0.075378	-0.10773	-0.000763	0.002899	0.50415	0.03418	-0.005035	0.030518	0.27618	0.026398	0.03006	0.005188	0.17502	0.070953	-0.010223	0.07782	-0.11658	-0.10468	0.021362	0.020905	-0.1709	-0.025635	-0.076904	-0.009155	0.005341	-0.000916	-0.007019	0.59738	-0.005951	-0.007935	-0.011902
59.167	0.00946	-0.059357	-0.1181	0.005646	0.032959	0.4393	0.038605	0.002136	0.015717	0.50079	-0.000305	0.010223	-0.030365	-0.089264	0.10956	-0.010223	0.090485	-0.094299	-0.061646	0.013428	0.050659	-0.1828	-0.007477	-0.091705	0.013733	0.006714	0.072174	-0.00885	0.38666	0.04425	-0.000305	-0.008698
59.168	0.014343	-0.035248	-0.097198	0.009155	0.065002	-0.13443	0.028076	-0.000916	0.033112	0.37811	-0.016174	0.049591	0.010681	-0.013885	0.20432	-0.001678	0.031738	-0.11856	-0.036621	0.020447	0.037689	-0.16327	-0.004883	-0.11551	0.007172	-0.006714	0.26855	-0.007019	0.097046	0.022125	-0.007019	-0.009613
59.169	0.010529	-0.059204	-0.001068	-0.005493	0.035248	-0.65308	0.02182	-0.005798	0.034027	-0.12543	0.009918	0.099945	0.10559	-0.0737	0.016479	-0.001526	-0.006409	-0.10895	-0.12833	-0.010529	-0.12314	-0.11856	-0.039215	-0.1329	0.018005	0.00412	0.42068	0.00061	-0.40268	0.003204	-0.002441	-0.004272
59.17	0.003967	-0.057983	0.036316	-0.018158	-0.024872	-0.55176	0.022736	-0.005646	0.039368	-0.39475	0.024719	-0.07782	0.1503	-0.17944	-0.093384	-0.000916	-0.044403	-0.082703	-0.20157	-0.026398	-0.2829	-0.059509	-0.011597	-0.076904	0.023041	0.005493	0.25803	-0.00351	-0.11398	-0.061798	-0.004883	-0.005951
59.171	0.001984	-0.037842	0.10147	-0.004272	-0.041656	-0.40192	0.060425	-0.001678	0.017395	-0.051575	0.093994	-0.048065	0.034943	-0.15808	-0.048981	0.000763	-0.075684	-0.076447	-0.084686	-0.03479	-0.18005	-0.09903	-0.012207	-0.088806	0.003662	0.004272	-0.21362	-0.001984	0.1088	-0.065765	-0.006561	0.002441
59.172	0.007019	-0.070648	-0.015106	0.028076	-0.006866	-0.36041	0.06134	-0.005188	0.028687	0.28076	0.18036	-0.010376	-0.12802	-0.062408	-0.011444	-0.018005	-0.06012	-0.083923	0.12985	-0.012054	-0.023651	-0.11856	-0.024719	-0.050812	0.018005	0.006409	-0.71106	-0.003052	0.021362	-0.040131	-0.003052	0.001984
59.173	-0.000458	-0.085297	-0.063934	0.019684	0.072174	-0.392	0.059509	-0.003357	0.018005	0.7576	0.13336	-0.02121	-0.10864	-0.023499	0.000153	0.000916	-0.046692	-0.12894	0.25192	0.048218	0.12222	-0.10849	-0.019531	-0.071716	0.031586	0.006561	-0.31387	-0.007629	-0.062408	-0.10117	-0.000305	0.001984
59.174	-0.002899	-0.10696	-0.112	0.01709	0.062103	-0.20004	0.07782	-0.00412	0.02182	0.90897	0.05722	-0.01236	-0.09964	-0.15808	0.033569	-0.013428	-0.031586	-0.15686	0.28046	0.050507	0.10254	-0.083008	-0.000305	-0.068512	0.022583	0.003662	-0.017548	-0.002136	-0.058136	-0.16266	-0.002289	0.009613
59.175	-0.001373	-0.096741	-0.13321	0.008392	-0.049591	-0.000763	0.090942	0.00473	0.020599	0.75333	0.018616	-0.013885	0.023804	-0.19012	0.042725	-0.037689	-0.006866	-0.14587	0.46753	0.043488	0.11169	-0.025177	-0.016785	-0.025482	0.039978	0.003815	0.10422	0.003357	0.18417	-0.11475	-0.00061	-0.002136
59.176	-0.001984	-0.049133	0.028534	-0.016785	-0.10635	0.075226	0.088348	-0.002899	0.014191	0.56213	0.006409	-0.005035	0.005951	-0.25162	0.010529	-0.029144	0.015106	-0.055695	0.31021	0.007629	0.12482	0.002136	-0.014191	-0.044403	0.025635	0.007019	0.077515	-0.002594	0.16876	-0.072021	-0.002899	0.005646
59.177	0.011902	-0.063934	0.091248	-0.021515	-0.061951	0.028992	0.066071	0.001831	0.007477	-0.81634	0.008698	-0.006256	-0.010834	0.095062	-0.000763	-0.017242	0.005188	-0.087891	-0.11841	-0.062714	0.027008	-0.011902	-0.033112	0.021973	0.027466	0.000763	0.17303	-0.005798	0.11322	-0.066986	-0.002899	-0.005493
59.178	0.022278	-0.084534	0.065155	-0.001221	0.057831	0.028229	0.080261	-0.005798	0.007477	-1.3205	-0.006866	0.023193	-0.055084	0.40146	-0.008392	0.014343	0.010071	-0.12207	-0.053711	-0.070343	0.008392	-0.02121	-0.022736	0.016632	0.016174	0.000763	0.14862	-0.009003	0.11978	-0.095215	0.001678	-0.007324
59.179	0.032043	-0.094452	0.041809	-0.012665	0.1561	0.002289	0.066071	-0.001526	-0.00824	-0.74265	-0.008545	0.0383	-0.042572	-0.10254	-0.043335	-0.035858	0.017853	-0.15595	0.14252	-0.084229	0.003204	-0.039978	-0.018311	-0.026703	0.028839	-0.003815	0.10605	-0.006256	0.14923	-0.067139	-0.00061	-0.000153
59.18	0.015106	-0.10574	0.024109	-0.001678	0.10284	0.028687	0.049133	0.002136	-0.031433	-0.56335	0.00824	0.031128	0.047455	-0.271	-0.066528	-0.043793	0.026093	-0.16876	0.034027	-0.023651	0.021667	-0.055847	-0.046082	-0.027313	0.026245	0.00061	-0.2182	-0.003052	0.043182	-0.032196	-0.00351	-0.001678
59.181	0.010376	-0.076904	-0.000763	0.010986	0.066071	0.044403	0.062714	0.002747	-0.003967	-0.60532	0.049744	0.022583	0.083008	-0.40451	-0.056458	0.080872	0.048676	-0.16983	-0.16403	0.093079	0.11032	-0.095978	-0.077362	-0.059814	0.022125	-0.007324	-0.44754	-0.00351	-0.032196	-0.053864	-0.002441	-0.007629
59.182	-0.054932	-0.066986	-0.023193	0.01358	0.053101	0.068207	0.022736	0.004272	0.002441	-0.51437	0.098267	0.015564	-0.12787	-0.21194	-0.048828	0.25559	0.11963	-0.14938	-0.035706	0.16571	0.042877	-0.12604	-0.048981	-0.071106	0.026093	-0.009918	-0.29877	-0.002899	-0.024109	-0.071869	-0.001373	-0.00946
59.183	0.015259	-0.062714	-0.044861	0.010376	0.040894	0.084534	-0.028687	-0.003052	-0.087128	-0.23926	0.085449	0.020905	-0.18112	0.3035	-0.039978	0.079498	0.14069	-0.17212	0.021362	0.15106	0.078735	-0.16205	-0.0177	-0.16419	0.027924	-0.004883	0.093231	-0.002899	-0.027924	-0.063477	0.00061	-0.00946
59.184	0.018616	-0.061951	-0.02655	0.004883	0.02594	0.1088	0.018768	0	0.073395	0.099335	-0.004578	0.023804	-0.16113	0.23132	-0.050659	-0.010681	0.090027	-0.087585	-0.015564	0.017853	0.06958	-0.11643	-0.030975	-0.13962	0.026245	-0.007935	0.21622	-0.002747	-0.52109	-0.079346	0.001526	-0.015411
59.185	0.02655	-0.042114	0.016937	0.005646	-0.002747	0.18585	0.026398	0.000153	0.066986	0.26657	-0.031433	0.009003	-0.092773	-0.18646	-0.026703	-0.09079	0.086975	-0.11871	-0.068512	-0.10666	-0.18448	0.027771	0.000458	-0.083923	0.010529	-0.007019	0.13458	-0.001831	-0.4277	-0.03006	-0.00061	-0.010681
